<svg xmlns="http://www.w3.org/2000/svg" viewBox="0 0 404 145.79"><defs><style>.cls-1{fill:#fff;}</style></defs><g id="Layer_2" data-name="Layer 2"><path class="cls-1" d="M18,35.38v-18H12v-6H36v6H24v18Z"/><path class="cls-1" d="M90,35.38v-12H78v12H72v-24h6v6H90v-6h6v24Z"/><path class="cls-1" d="M150,35.38H132v-24h24v6H138v6h12v6h6v6Z"/><path class="cls-1" d="M11,86.38v-24H35v18H17v6Zm12-12h6v-6H17v6Z"/><path class="cls-1" d="M89,86.38v-6H77v6H71v-24H95v24Zm-6-12h6v-6H77v6Z"/><path class="cls-1" d="M131,86.38v-24h18v6H137v18Zm18,0v-18h6v18Z"/><path class="cls-1" d="M203,86.38H191v-6h6v-12h-6v-6h18v6h-6v12h6v6Z"/><path class="cls-1" d="M269,80.38h6v6H251v-24h24v6H257v12h12Z"/><path class="cls-1" d="M29,136.38v-6H17v6H11v-24H35v24Zm-6-12h6v-6H17v6Z"/><path class="cls-1" d="M77,136.38v-18H71v-6H95v6H83v18Z"/><path class="cls-1" d="M137,136.38v-18h-6v-6h24v6H143v18Z"/><path class="cls-1" d="M209,136.38v-6H197v6h-6v-24h24v24Zm-6-12h6v-6H197v6Z"/><path class="cls-1" d="M269,130.38h6v6H251v-24h24v6H257v12h12Z"/><path class="cls-1" d="M317,136.38v-24h6v6h12v6H323v12Zm18-18v-6h6v6Zm0,18v-12h6v12Z"/><path class="cls-1" d="M383,124.38H371v-12h24v6H383Zm6,12H371v-6h12v-6h12v12Z"/></g></svg>