<svg id="Layer_1" data-name="Layer 1" xmlns="http://www.w3.org/2000/svg" viewBox="0 0 1004 45.79"><defs><style>.cls-1{fill:#fff;}</style></defs><path class="cls-1" d="M15.35,34.23v-18h-6v-6h24v6h-12v18Z"/><path class="cls-1" d="M87.35,34.23v-12h-12v12h-6v-24h6v6h12v-6h6v24Z"/><path class="cls-1" d="M147.35,34.23h-18v-24h24v6h-18v6h12v6h6v6Z"/><path class="cls-1" d="M249.35,34.23v-24h24v18h-18v6Zm12-12h6v-6h-12v6Z"/><path class="cls-1" d="M327.35,34.23v-6h-12v6h-6v-24h24v24Zm-6-12h6v-6h-12v6Z"/><path class="cls-1" d="M369.35,34.23v-24h18v6h-12v18Zm18,0v-18h6v18Z"/><path class="cls-1" d="M441.35,34.23h-12v-6h6v-12h-6v-6h18v6h-6v12h6v6Z"/><path class="cls-1" d="M507.35,28.23h6v6h-24v-24h24v6h-18v12h12Z"/><path class="cls-1" d="M627.35,34.23v-6h-12v6h-6v-24h24v24Zm-6-12h6v-6h-12v6Z"/><path class="cls-1" d="M675.35,34.23v-18h-6v-6h24v6h-12v18Z"/><path class="cls-1" d="M735.35,34.23v-18h-6v-6h24v6h-12v18Z"/><path class="cls-1" d="M807.35,34.23v-6h-12v6h-6v-24h24v24Zm-6-12h6v-6h-12v6Z"/><path class="cls-1" d="M867.35,28.23h6v6h-24v-24h24v6h-18v12h12Z"/><path class="cls-1" d="M915.35,34.23v-24h6v6h12v6h-12v12Zm18-18v-6h6v6Zm0,18v-12h6v12Z"/><path class="cls-1" d="M981.35,22.23h-12v-12h24v6h-12Zm6,12h-18v-6h12v-6h12v12Z"/></svg>